<?xml version="1.0" standalone="no"?>
<!DOCTYPE svg PUBLIC "-//W3C//DTD SVG 20010904//EN"
 "http://www.w3.org/TR/2001/REC-SVG-20010904/DTD/svg10.dtd">
<svg version="1.0" xmlns="http://www.w3.org/2000/svg"
 width="878.000000pt" height="878.000000pt" viewBox="0 0 878.000000 878.000000"
 preserveAspectRatio="xMidYMid meet">
<metadata>
Created by potrace 1.11, written by Peter Selinger 2001-2013
</metadata>
<g transform="translate(0.000000,878.000000) scale(0.100000,-0.100000)"
fill="#000000" stroke="none">
<path d="M4989 8616 c-2 -2 -29 -6 -59 -9 -58 -6 -195 -32 -195 -37 0 -1 -9
-3 -20 -5 -82 -13 -348 -102 -452 -151 -28 -13 -55 -24 -58 -24 -10 0 -261
-124 -325 -160 -73 -42 -296 -191 -339 -227 -119 -100 -203 -182 -259 -253
-21 -25 -40 -46 -44 -48 -5 -2 -8 -8 -8 -13 0 -6 -17 -33 -38 -62 -20 -29 -46
-70 -57 -92 -11 -22 -23 -42 -27 -45 -11 -9 -128 -259 -128 -275 0 -8 -4 -17
-10 -20 -5 -3 -10 -14 -10 -23 0 -9 -7 -30 -15 -45 -20 -38 -62 -187 -89 -317
-12 -58 -23 -108 -24 -112 -1 -5 -2 -25 -2 -46 0 -32 -8 -47 -45 -88 -25 -27
-60 -68 -77 -91 -36 -49 -45 -52 -53 -20 -7 28 -170 189 -238 236 -105 72
-191 96 -286 79 -62 -11 -69 -13 -77 -21 -4 -4 -14 -7 -22 -7 -70 0 -429 -339
-395 -374 3 -3 2 -6 -4 -6 -6 0 -14 -17 -18 -37 -11 -53 -11 -53 -28 -103 -18
-54 -27 -93 -33 -138 -2 -19 -7 -38 -9 -43 -9 -13 -19 -147 -19 -244 0 -111
14 -219 35 -275 5 -14 11 -34 13 -45 8 -42 130 -276 147 -283 5 -2 9 -10 9
-17 0 -7 3 -15 8 -17 4 -1 20 -21 37 -43 50 -67 84 -105 222 -242 129 -129
132 -133 105 -139 -25 -6 -124 -58 -147 -77 -5 -4 -35 -26 -65 -49 -30 -22
-57 -43 -60 -48 -5 -8 -80 -56 -120 -78 -34 -18 -130 -43 -141 -36 -5 3 -9 1
-9 -3 0 -18 -118 0 -165 25 -16 9 -32 16 -35 17 -5 0 -63 40 -94 65 -18 15
-42 39 -98 102 -15 17 -40 49 -55 72 -15 22 -33 46 -39 53 -6 6 -17 25 -24 42
-7 17 -16 31 -21 31 -5 0 -8 3 -7 8 1 4 -14 41 -34 82 -46 94 -66 154 -88 255
-47 220 23 346 176 315 78 -16 88 -20 96 -34 5 -8 14 -21 21 -28 41 -43 47
-115 17 -208 -24 -77 -25 -93 -2 -113 47 -43 124 -21 204 57 85 84 104 193 53
301 -36 76 -135 178 -190 196 -22 7 -44 16 -50 20 -14 9 -163 57 -200 64 -16
3 -43 9 -60 12 -39 8 -152 8 -190 0 -59 -12 -81 -21 -130 -52 -63 -40 -165
-152 -165 -181 0 -7 -4 -14 -10 -16 -10 -3 -107 -213 -113 -245 -2 -10 -6 -25
-10 -33 -3 -8 -8 -24 -13 -35 -18 -50 -33 -115 -29 -129 2 -6 6 -38 9 -71 9
-106 30 -227 56 -320 6 -22 13 -51 16 -64 3 -13 11 -39 19 -57 8 -19 12 -34
10 -34 -2 0 10 -30 26 -67 54 -121 58 -128 128 -238 51 -82 188 -229 254 -274
12 -8 24 -18 27 -21 24 -29 351 -207 400 -218 8 -2 37 -14 65 -26 41 -19 197
-71 595 -199 19 -6 37 -12 39 -14 2 -1 -11 -20 -28 -41 -17 -22 -31 -43 -31
-47 0 -4 -6 -21 -14 -38 -7 -18 -18 -45 -24 -62 -6 -16 -14 -39 -18 -50 -9
-24 -8 -22 -18 -65 -5 -19 -13 -41 -18 -47 -6 -7 -8 -13 -5 -13 6 0 -32 -100
-54 -143 -8 -15 -41 -55 -74 -88 -53 -54 -79 -71 -140 -94 -49 -19 -187 -24
-270 -10 -27 4 -58 8 -67 9 -10 0 -18 4 -18 8 0 4 -11 8 -23 8 -13 0 -37 6
-53 14 -16 8 -40 17 -54 20 -14 2 -53 18 -88 35 -34 17 -64 31 -66 31 -7 0
-168 99 -206 126 -70 50 -167 152 -200 209 -42 73 -46 144 -12 192 24 33 136
93 175 93 91 0 178 -93 201 -217 11 -53 43 -76 94 -67 36 7 46 17 76 77 30 61
38 94 39 159 0 50 -21 128 -35 128 -4 0 -8 6 -8 13 0 17 -64 76 -109 101 -83
44 -215 65 -291 46 -70 -17 -75 -18 -75 -20 0 -1 -7 -3 -16 -5 -94 -18 -294
-104 -336 -144 -12 -12 -26 -21 -30 -21 -12 -1 -87 -100 -106 -139 -10 -19
-17 -41 -17 -51 0 -9 -5 -21 -12 -28 -14 -14 -19 -223 -6 -290 5 -26 11 -60
13 -77 3 -16 12 -55 20 -85 9 -30 23 -79 31 -109 8 -29 17 -57 20 -62 3 -5 7
-18 9 -30 9 -44 180 -234 313 -347 26 -22 58 -50 72 -62 14 -12 37 -29 52 -38
16 -9 28 -20 28 -25 0 -4 4 -6 9 -3 5 3 11 -1 15 -9 3 -8 10 -15 16 -15 6 0
31 -13 54 -29 132 -91 406 -184 566 -193 19 -1 41 -6 47 -11 7 -5 13 -6 13 -1
0 5 44 9 98 10 106 1 192 8 286 25 88 15 101 17 101 19 0 1 11 3 24 6 37 7
184 44 201 51 17 7 25 9 60 16 14 3 45 13 70 22 25 9 56 19 69 21 14 3 29 8
35 12 6 3 17 7 25 9 11 1 128 39 191 61 8 3 21 7 28 9 6 1 18 5 25 6 6 2 20 7
30 10 9 4 25 10 35 14 9 3 22 7 27 8 6 2 64 20 130 40 66 21 127 39 135 40 9
0 20 4 25 7 6 3 71 4 145 1 74 -2 152 -4 173 -5 36 -1 43 -7 120 -105 99 -126
147 -202 147 -234 0 -5 4 -17 9 -27 5 -9 28 -78 51 -152 24 -74 51 -160 61
-190 10 -30 36 -113 59 -185 23 -71 44 -137 47 -145 4 -8 7 -18 8 -22 2 -5 4
-10 5 -13 1 -3 3 -8 5 -12 1 -5 5 -17 9 -28 4 -11 17 -45 29 -75 22 -58 63
-152 104 -235 129 -266 323 -471 552 -587 48 -24 89 -47 92 -51 3 -5 9 -8 13
-8 3 0 11 -2 18 -4 63 -22 206 -68 223 -71 11 -2 31 -6 45 -10 27 -6 48 -10
95 -18 17 -3 41 -7 55 -10 121 -22 239 -29 255 -16 8 7 15 10 15 7 0 -4 46 10
103 29 119 42 293 126 330 160 14 13 29 24 32 24 3 0 25 20 49 45 46 48 91
130 102 186 17 83 -1 282 -28 317 -6 6 -8 12 -5 12 9 0 -60 187 -82 224 -11
17 -33 43 -48 56 -54 48 -113 92 -126 94 -6 1 -18 6 -26 10 -20 13 -171 18
-171 6 0 -6 -8 -10 -18 -10 -29 0 -118 -86 -146 -142 -33 -65 -33 -89 0 -122
27 -26 61 -28 92 -3 6 5 12 7 12 4 0 -4 18 0 40 8 57 20 122 12 175 -22 25
-15 46 -34 46 -40 1 -7 2 -16 4 -20 31 -113 23 -171 -30 -215 -41 -34 -175
-46 -265 -23 -14 3 -38 9 -54 11 -17 3 -53 15 -80 26 -28 11 -55 21 -61 22 -5
1 -24 10 -41 19 -17 9 -34 13 -38 10 -3 -4 -6 -1 -6 5 0 7 -4 12 -9 12 -14 0
-164 88 -195 115 -16 14 -32 25 -35 25 -14 0 -142 135 -174 183 -72 108 -89
229 -44 312 6 11 12 29 14 39 2 11 7 24 11 30 5 6 24 47 42 91 19 44 49 108
67 141 17 34 29 64 26 68 -4 3 -1 6 5 6 7 0 12 5 12 10 0 6 25 52 56 104 47
79 60 94 78 90 25 -5 57 -11 106 -18 33 -5 54 -9 110 -22 14 -3 38 -7 54 -10
25 -5 105 -44 132 -65 6 -5 14 -6 17 -2 4 3 7 1 7 -5 0 -7 4 -12 9 -12 5 0 55
-27 111 -60 56 -33 106 -60 111 -60 5 0 9 -4 9 -10 0 -5 4 -10 10 -10 5 0 73
-38 152 -84 402 -234 618 -333 863 -395 100 -25 170 -33 310 -34 177 -1 299
20 475 84 217 79 567 297 625 389 85 134 191 364 201 435 1 11 3 20 4 20 7 0
13 67 13 150 0 86 -3 108 -25 155 -33 71 -90 147 -140 185 -21 17 -44 35 -51
40 -22 18 -149 99 -157 100 -3 0 -16 7 -30 15 -42 24 -124 63 -140 67 -47 10
-159 8 -213 -4 -140 -32 -226 -130 -231 -265 -3 -61 19 -155 41 -180 18 -20
65 -32 90 -24 16 5 56 59 57 78 3 26 73 102 110 118 74 34 114 33 170 -1 102
-63 132 -133 97 -223 -14 -34 -115 -135 -156 -156 -17 -8 -46 -24 -65 -36 -34
-20 -184 -85 -205 -88 -5 -1 -16 -5 -22 -9 -7 -5 -13 -6 -13 -3 0 3 -18 -1
-40 -9 -22 -8 -40 -12 -40 -10 0 3 -12 0 -26 -5 -25 -10 -41 -13 -154 -26
-112 -14 -276 -6 -333 15 -15 6 -27 8 -27 6 0 -3 -26 9 -57 26 -64 33 -103 70
-149 139 -49 73 -65 138 -79 320 -18 217 -38 287 -101 338 -30 25 -84 49 -131
58 -18 3 -49 23 -38 24 72 8 120 34 296 157 175 123 237 154 379 187 8 2 35 9
60 16 25 7 54 14 65 17 37 8 50 11 53 13 1 2 5 3 10 4 4 1 30 8 58 15 29 7 58
14 65 15 8 2 21 6 29 9 8 4 35 11 60 16 25 5 95 23 155 41 61 17 119 33 130
34 11 2 20 4 20 5 0 2 8 4 17 6 9 2 34 9 55 16 21 7 41 12 46 11 4 -1 7 3 7
10 0 6 3 9 6 5 6 -6 97 23 151 48 17 8 33 15 36 15 2 0 21 7 41 15 20 8 39 16
43 18 5 1 31 14 58 29 28 15 70 37 95 49 41 21 144 89 194 128 33 27 196 189
196 195 0 4 11 19 24 33 28 30 132 203 129 214 -1 4 4 13 12 19 8 7 15 20 15
29 0 9 5 22 12 29 6 6 13 17 15 24 1 7 23 70 47 141 24 70 42 127 41 127 -2 0
2 21 10 48 13 45 25 106 31 147 1 11 5 31 7 45 14 70 16 119 6 155 -6 22 -12
49 -14 60 -2 11 -4 20 -5 20 -1 0 -3 7 -5 15 -2 8 -11 38 -20 65 -10 28 -19
55 -20 60 -2 10 -8 27 -24 70 -5 11 -19 43 -31 70 -13 28 -23 53 -22 58 1 4
-3 7 -8 7 -6 0 -10 5 -10 11 0 18 -62 102 -111 150 -42 42 -135 97 -171 103
-7 1 -17 4 -23 7 -10 6 -63 10 -145 13 -34 1 -44 5 -42 16 30 130 31 396 2
451 -5 9 -7 19 -4 22 4 3 -1 32 -11 64 -9 32 -26 90 -37 128 -23 79 -85 219
-114 256 -36 46 -109 114 -139 129 -17 8 -32 18 -35 22 -3 4 -17 9 -30 11 -14
2 -34 8 -45 12 -22 10 -194 11 -240 2 -42 -8 -61 -13 -133 -31 -34 -9 -67 -14
-71 -12 -5 3 -19 32 -31 63 -51 129 -159 328 -267 490 -207 313 -519 648 -791
851 -42 31 -79 59 -82 62 -10 12 -167 107 -217 133 -104 53 -328 119 -453 132
-19 2 -35 4 -35 5 0 8 -388 24 -396 16z m2579 -1993 c66 -50 80 -150 43 -305
-25 -107 -119 -325 -143 -336 -5 -2 -8 -8 -8 -14 0 -12 -61 -102 -72 -106 -4
-2 -8 -8 -8 -13 0 -16 -136 -167 -143 -159 -2 3 4 32 14 65 34 107 40 130 44
160 2 17 4 30 5 30 3 0 18 81 35 185 24 150 20 432 -7 475 -7 11 10 28 32 33
102 24 163 19 208 -15z m-5201 -160 c19 -9 50 -31 69 -48 30 -29 34 -38 34
-86 0 -46 -6 -62 -36 -106 -20 -29 -40 -53 -45 -53 -5 0 -15 -13 -24 -29 -14
-28 -13 -31 10 -60 23 -27 31 -29 78 -28 29 2 58 6 65 10 9 6 12 -15 13 -95 0
-122 5 -175 19 -243 6 -27 13 -59 15 -70 2 -11 4 -21 5 -22 2 -2 3 -7 4 -12 0
-5 4 -13 9 -17 4 -4 7 -14 7 -22 0 -7 15 -44 34 -82 l33 -68 -41 -8 c-23 -4
-67 -8 -100 -9 -51 -2 -71 1 -136 23 -8 3 -18 5 -21 4 -17 -3 -102 85 -132
136 -40 69 -79 189 -94 292 -12 78 -6 375 7 375 1 0 4 14 6 30 9 55 67 158
103 182 40 27 71 29 118 6z m5728 -975 c27 -15 75 -78 59 -78 -3 0 -1 -6 5
-13 7 -9 9 -47 7 -103 -3 -69 -12 -112 -39 -189 -44 -128 -60 -169 -68 -175
-4 -3 -18 -27 -32 -55 -24 -48 -92 -154 -132 -205 -11 -14 -59 -64 -107 -112
-155 -153 -292 -201 -450 -159 -34 10 -77 25 -94 34 -32 17 -118 81 -169 128
-71 64 -130 112 -151 121 -38 18 -36 36 4 49 20 7 40 12 45 11 4 -1 7 3 7 8 0
6 7 10 15 10 8 0 23 4 33 9 9 5 76 38 147 72 149 72 311 166 404 234 l64 47
51 -24 c45 -22 54 -23 82 -12 58 24 60 33 38 149 -4 24 0 36 23 60 36 38 133
161 133 169 0 3 8 15 18 26 20 24 60 23 107 -2z"/>
</g>
</svg>
